# xmcd
#
# Track frame offsets: 
#        150
#        24737
#        47314
#        77641
#        94639
#        117602
#        148364
#        165210
#        190755
#        212950
#        233763
#        266402
#        293592
#        315696
#
# Disc length: 4481 seconds
#
# Revision: 7
# Processed by: cddbd v1.5.2PL0 Copyright (c) Steve Scherf et al.
# Submitted via: ExactAudioCopy v1.3
#
DISCID=bd117f0e
DTITLE=Pride and Glory - Pride and Glory
DYEAR=1994
DGENRE=Hard Rock
TTITLE0=Losin' Your Mind
TTITLE1=Horse Called War
TTITLE2=Shine On
TTITLE3=Lovin' Women
TTITLE4=Harvester Of Pain
TTITLE5=The Chosen One
TTITLE6=Sweet Jesus
TTITLE7=Troubled Wine
TTITLE8=Machine Gun Man
TTITLE9=Cry Me A River
TTITLE10=Toe'n The Line
TTITLE11=Found A Friend
TTITLE12=Fadin' Away
TTITLE13=Hate Your Guts
EXTD=YEAR: 1994 ID3G: 9
EXTT0=
EXTT1=
EXTT2=
EXTT3=
EXTT4=
EXTT5=
EXTT6=
EXTT7=
EXTT8=
EXTT9=
EXTT10=
EXTT11=
EXTT12=
EXTT13=
PLAYORDER=
